<?xml version="1.0" encoding="UTF-8"?>
<svg version="1.1" xmlns="http://www.w3.org/2000/svg" width="280" height="280">
<path d="M0 0 C92.4 0 184.8 0 280 0 C280 92.4 280 184.8 280 280 C187.6 280 95.2 280 0 280 C0 187.6 0 95.2 0 0 Z " fill="#ECCAA8" transform="translate(0,0)"/>
<path d="M0 0 C92.4 0 184.8 0 280 0 C280 92.07 280 184.14 280 279 C279.67 279 279.34 279 279 279 C278.91959473 278.35562988 278.83918945 277.71125977 278.75634766 277.04736328 C278.3829906 274.0727568 278.00402511 271.09888936 277.625 268.125 C277.49867188 267.11179687 277.37234375 266.09859375 277.2421875 265.0546875 C276.51745566 259.40177918 275.61293755 253.84687192 274.44628906 248.26904297 C273.80951038 245.03150409 273.43651048 241.77704424 273.0625 238.5 C270.81460861 221.59856101 263.84381727 206.51775944 251 195 C241.91562847 188.19297781 233.04394362 184.79861413 222.0625 182.5 C216.14233093 181.25576108 210.51979693 179.92839357 204.89624023 177.68701172 C201.67572673 176.52021308 198.3624982 175.92416717 195 175.3125 C193.98099609 175.11817383 193.98099609 175.11817383 192.94140625 174.91992188 C191.29546014 174.60696029 189.64789301 174.30254286 188 174 C188 173.34 188 172.68 188 172 C187.34 172 186.68 172 186 172 C186 171.34 186 170.68 186 170 C185.34 170 184.68 170 184 170 C182.780192 168.55549052 181.56322297 167.1067913 180.4140625 165.60546875 C179.03829233 163.87374733 179.03829233 163.87374733 176.88671875 162.765625 C174.53044635 160.56058333 174.3543345 158.81628955 174.19091797 155.65429688 C174.18922607 154.61885742 174.18922607 154.61885742 174.1875 153.5625 C174.18379395 152.85544922 174.18008789 152.14839844 174.17626953 151.41992188 C174.51452175 143.56396986 178.39475918 138.34217897 184 133 C184.66 133 185.32 133 186 133 C186.17015625 131.90171875 186.17015625 131.90171875 186.34375 130.78125 C187.20136802 127.14658316 188.92456702 124.45013352 190.84375 121.28125 C192.07735286 118.84738489 192.5839199 116.68560794 193 114 C194.27875 113.7525 195.5575 113.505 196.875 113.25 C200.07484259 112.56000503 200.07484259 112.56000503 202.1875 110.25 C202.455625 109.5075 202.72375 108.765 203 108 C204.2065625 106.700625 204.2065625 106.700625 205.4375 105.375 C210.44455277 99.5260534 211.31269135 91.42293343 212 84 C211.34 84 210.68 84 210 84 C210 83.34 210 82.68 210 82 C208.35 82 206.7 82 205 82 C205.00112793 80.93265625 205.00225586 79.8653125 205.00341797 78.765625 C204.99968759 74.72442259 204.95636135 70.68437123 204.90234375 66.64355469 C204.88441168 64.9099073 204.87657289 63.17611978 204.87988281 61.44238281 C204.89631797 47.25883945 203.22540365 32.83924713 193.59375 21.5859375 C178.57255656 6.63837736 157.94660769 1.76200599 137.4597168 1.74853516 C123.42423197 1.98073133 109.96239594 6.82256244 98 14 C97.34 14 96.68 14 96 14 C96 14.66 96 15.32 96 16 C95.01 16 94.02 16 93 16 C92.505 17.485 92.505 17.485 92 19 C91.22914062 19.58652344 90.45828125 20.17304688 89.6640625 20.77734375 C82.06699468 27.11565987 77.8627436 40.49969675 76.7578125 50.10546875 C76.59725302 54.57437441 77.53318022 58.67052468 78.48828125 62.9921875 C79.5549657 69.26201215 79.70084195 75.65470022 80 82 C76.535 82.495 76.535 82.495 73 83 C74.05412861 90.91216535 75.4371644 98.43109219 78 106 C78.66 106 79.32 106 80 106 C80.61875 106.78375 81.2375 107.5675 81.875 108.375 C83.71430056 111.04727757 83.71430056 111.04727757 85.96875 111.89453125 C88.55978438 113.30465188 89.27235215 114.71628881 90.625 117.3125 C91.02976562 118.07175781 91.43453125 118.83101563 91.8515625 119.61328125 C93 122 93 122 93.796875 124.3125 C95.5288843 128.18140389 98.05988894 131.33137119 100.625 134.6875 C101.64232531 136.02146781 102.65556844 137.35856196 103.6640625 138.69921875 C104.11217285 139.28533936 104.5602832 139.87145996 105.02197266 140.4753418 C106 142 106 142 106 144 C106.66 144 107.32 144 108 144 C108.13548815 146.73083902 108.23429855 149.45491807 108.3125 152.1875 C108.35439453 152.95642578 108.39628906 153.72535156 108.43945312 154.51757812 C108.53143565 158.80396401 108.45910068 160.43870747 105.6484375 163.875 C104.77445312 164.57625 103.90046875 165.2775 103 166 C101.6696875 167.3921875 101.6696875 167.3921875 100.3125 168.8125 C98 171 98 171 96 171 C95.67 171.99 95.34 172.98 95 174 C92.28625999 174.80282747 89.70694463 175.40974379 86.9375 175.9375 C85.29650264 176.27554118 83.65588386 176.61542468 82.015625 176.95703125 C81.18095703 177.12799316 80.34628906 177.29895508 79.48632812 177.47509766 C75.69879202 178.27470514 71.94273603 179.18674447 68.1875 180.125 C66.92292969 180.43695313 65.65835938 180.74890625 64.35546875 181.0703125 C61.45150792 181.87490235 58.78911646 182.8796261 56 184 C54.65072256 184.25638861 53.29605043 184.48594242 51.9375 184.6875 C38.64643206 187.5403249 27.57092702 197.80817428 20.17211914 208.7487793 C10.96241863 223.139826 6.74368646 241.151285 5.23339844 258.0324707 C4.9210483 260.6655562 4.2325518 263.18215762 3.54296875 265.73828125 C2.41536 270.435299 1.74726242 275.23023989 1 280 C0.67 280 0.34 280 0 280 C0 187.6 0 95.2 0 0 Z " fill="#FEFEFE" transform="translate(0,0)"/>
<path d="M0 0 C5.55594358 16.44034329 10.98743869 32.90270898 16.04272461 49.50463867 C17.63318552 54.70691802 19.25494052 59.85313178 21.22045898 64.92578125 C22.97281962 69.58849842 24.49280126 74.33593033 26.0625 79.0625 C26.5894043 80.63741211 26.5894043 80.63741211 27.12695312 82.24414062 C28.86637373 87.4689787 30.54589341 92.68836713 32 98 C33.79230479 89.73881437 35.0950963 81.40595366 36.34204102 73.04882812 C36.57351891 71.50847769 36.80924006 69.96875929 37.04907227 68.4296875 C37.39988817 66.17836044 37.73841409 63.92548413 38.07421875 61.671875 C38.23660286 60.64981964 38.23660286 60.64981964 38.40226746 59.6071167 C39.11157405 54.70321028 39.23471162 50.33223306 36.875 45.875 C36 44 36 44 36.17578125 42.08984375 C37.29202374 39.25956066 38.79192758 38.35000521 41.3125 36.6875 C42.48232422 35.88892578 42.48232422 35.88892578 43.67578125 35.07421875 C46 34 46 34 47.99609375 34.140625 C50.46359748 35.19881374 52.5417022 36.53617652 54.75 38.0625 C55.94882812 38.88427734 55.94882812 38.88427734 57.171875 39.72265625 C57.77515625 40.14417969 58.3784375 40.56570312 59 41 C58.42415568 43.38564077 57.77772405 45.66682784 57 48 C56.26296086 58.19783455 57.81676404 68.04148622 59.4375 78.0625 C59.67078234 79.55911092 59.90320876 81.05585552 60.13476562 82.55273438 C61.27869362 90.33432524 61.27869362 90.33432524 63 98 C65.75064753 89.81613807 68.4243341 81.60954903 71.06143188 73.38845825 C74.94263856 61.2938123 78.90476016 49.229922 82.94482422 37.18725586 C84.96752138 31.144164 86.94028625 25.09138117 88.8125 19 C90.68236103 12.92295166 92.74553104 6.94474498 95 1 C103.09354033 1.23945386 110.08972135 2.07266264 117.6796875 4.90625 C120.96103949 5.98716595 124.15863287 6.69134893 127.54174805 7.3527832 C144.21484385 10.63785586 157.47067986 17.90297772 167.8125 31.8125 C176.25779156 44.73359357 179.82386891 58.03993416 181.53515625 73.1640625 C181.91251641 76.27807656 182.39000798 79.3013968 183 82.375 C184.3894563 90.19069166 185.12336825 98.11031422 186 106 C93.93 106 1.86 106 -93 106 C-91.92351549 93.08218589 -91.92351549 93.08218589 -90.5234375 88.0703125 C-89.9200324 85.68371023 -89.55507595 83.30932373 -89.1875 80.875 C-85.31671234 57.26019468 -79.46519334 32.88377697 -59 18 C-53.04858312 13.9845862 -47.42365463 10.54911241 -40.26220703 9.42944336 C-38.07905648 9.01500759 -36.15248981 8.40873555 -34.06640625 7.65234375 C-28.02618342 5.5923726 -21.84305321 4.22252886 -15.625 2.8125 C-13.86349609 2.40354492 -13.86349609 2.40354492 -12.06640625 1.98632812 C-3.39426692 0 -3.39426692 0 0 0 Z " fill="#1A3442" transform="translate(94,174)"/>
<path d="M0 0 C5.55594358 16.44034329 10.98743869 32.90270898 16.04272461 49.50463867 C17.63318552 54.70691802 19.25494052 59.85313178 21.22045898 64.92578125 C22.97281962 69.58849842 24.49280126 74.33593033 26.0625 79.0625 C26.5894043 80.63741211 26.5894043 80.63741211 27.12695312 82.24414062 C28.86637373 87.4689787 30.54589341 92.68836713 32 98 C32.66 97.34 33.32 96.68 34 96 C33.67 99.3 33.34 102.6 33 106 C-8.58 106 -50.16 106 -93 106 C-91.92351549 93.08218589 -91.92351549 93.08218589 -90.5234375 88.0703125 C-89.9200324 85.68371023 -89.55507595 83.30932373 -89.1875 80.875 C-85.31671234 57.26019468 -79.46519334 32.88377697 -59 18 C-53.04858312 13.9845862 -47.42365463 10.54911241 -40.26220703 9.42944336 C-38.07905648 9.01500759 -36.15248981 8.40873555 -34.06640625 7.65234375 C-28.02618342 5.5923726 -21.84305321 4.22252886 -15.625 2.8125 C-13.86349609 2.40354492 -13.86349609 2.40354492 -12.06640625 1.98632812 C-3.39426692 0 -3.39426692 0 0 0 Z " fill="#1A3443" transform="translate(94,174)"/>
<path d="M0 0 C1.09570312 0.52851563 2.19140625 1.05703125 3.3203125 1.6015625 C17.65827852 8.88697911 25.18273058 17.26940692 30.16430664 32.47314453 C31.71952535 39.03659457 31.4520964 45.61572891 31.3125 52.3125 C31.30097172 53.74022123 31.29119759 55.16795773 31.28320312 56.59570312 C31.11430472 73.98317092 31.11430472 73.98317092 26 80 C24.85516866 82.29447289 23.93773896 84.60876565 23 87 C22.67 87 22.34 87 22 87 C22.00902344 86.3709375 22.01804687 85.741875 22.02734375 85.09375 C21.80514362 78.67892874 20.50207181 75.86664672 16.015625 71.3984375 C13.43598542 68.32886637 11.91926305 65.03114849 10.1875 61.4375 C5.94680057 52.8953101 0.07914982 48.13463649 -9 45 C-18.40799631 43.29630836 -25.24992539 46.94292214 -33 52 C-33.86882812 52.69609375 -34.73765625 53.3921875 -35.6328125 54.109375 C-42.19350608 59.34926888 -49.9425029 58.83136133 -58 58 C-61.63361586 57.10131159 -64.67519304 55.68424718 -68 54 C-68.87092285 53.56453857 -69.7418457 53.12907715 -70.63916016 52.68041992 C-73.09277344 51.45361328 -75.54638672 50.22680664 -78 49 C-81.85469438 61.7234823 -84.96172865 73.64329736 -85 87 C-85.43159424 86.42338623 -85.86318848 85.84677246 -86.30786133 85.25268555 C-87.37134439 83.83690742 -88.44757221 82.43052373 -89.54174805 81.03833008 C-93.92691758 75.08268721 -95.13951604 69.97242851 -95.8125 62.6875 C-96.02594091 60.75375089 -96.2407311 58.82015012 -96.45703125 56.88671875 C-96.53928955 56.04326904 -96.62154785 55.19981934 -96.70629883 54.33081055 C-96.98126664 52.14866786 -97.45884767 50.12787953 -98 48 C-99.04461354 36.50925107 -94.01535291 24.60682898 -88 15 C-86.10051587 12.98152267 -84.28780552 11.59614338 -82 10 C-81.67 9.34 -81.34 8.68 -81 8 C-80.01 8 -79.02 8 -78 8 C-78 7.34 -78 6.68 -78 6 C-75.50252977 4.72398669 -73.00222064 3.45413829 -70.5 2.1875 C-69.80390625 1.83107422 -69.1078125 1.47464844 -68.390625 1.10742188 C-47.15280066 -9.60981356 -21.55348444 -10.58080145 0 0 Z " fill="#0D0B0C" transform="translate(174,8)"/>
<path d="M0 0 C1.2989839 0.90626784 2.58893167 1.82549537 3.875 2.75 C4.95394531 3.51570312 4.95394531 3.51570312 6.0546875 4.296875 C8.08570565 6.07503547 8.97855012 7.52701607 10 10 C10.66 10 11.32 10 12 10 C12 10.66 12 11.32 12 12 C12.66 12 13.32 12 14 12 C14 12.66 14 13.32 14 14 C15.65 14 17.3 14 19 14 C17.68 14.33 16.36 14.66 15 15 C14.81824219 15.68964844 14.63648438 16.37929687 14.44921875 17.08984375 C14.19785156 18.02957031 13.94648438 18.96929687 13.6875 19.9375 C13.44386719 20.85402344 13.20023437 21.77054688 12.94921875 22.71484375 C11.99352527 26.02240842 10.92338692 29.27182552 9.82348633 32.53344727 C8.66192624 36.0126176 7.55874121 39.50958179 6.44995117 43.00585938 C1.91130437 57.31117019 -2.81886556 71.54952262 -7.58203125 85.78125 C-7.79655441 86.42223129 -8.01107758 87.06321259 -8.23210144 87.72361755 C-9.13077492 90.40772922 -10.03079308 93.09136593 -10.93481445 95.77368164 C-12.51063777 100.46130653 -13.93359885 105.16706026 -15.25390625 109.93359375 C-16 112 -16 112 -18 114 C-26.22339725 65.82669252 -26.22339725 65.82669252 -22 58 C-22 57.01 -22 56.02 -22 55 C-23.84784175 53.262261 -23.84784175 53.262261 -26.25 51.75 C-27.03890625 51.20859375 -27.8278125 50.6671875 -28.640625 50.109375 C-30.87435934 48.819646 -30.87435934 48.819646 -33.03125 49.16796875 C-35.26663548 50.11268523 -37.21517972 51.23986682 -39.25 52.5625 C-40.30960938 53.24505859 -40.30960938 53.24505859 -41.390625 53.94140625 C-41.92171875 54.29074219 -42.4528125 54.64007813 -43 55 C-42.41888115 58.54651188 -42.41888115 58.54651188 -40.921875 61.7734375 C-39.62700602 64.90087529 -40.1300541 67.02857473 -40.625 70.375 C-40.82615358 71.78376396 -41.02660856 73.19262776 -41.2265625 74.6015625 C-41.34676758 75.42301758 -41.46697266 76.24447266 -41.59082031 77.09082031 C-42.08230137 80.58514507 -42.52208694 84.08461706 -42.9609375 87.5859375 C-43.21978494 89.62471842 -43.47962236 91.66337025 -43.7399292 93.70196533 C-43.91284403 95.06365438 -44.08379418 96.4255944 -44.25274658 97.78778076 C-44.49479563 99.72920228 -44.74722979 101.66932024 -45 103.609375 C-45.144375 104.74342773 -45.28875 105.87748047 -45.4375 107.04589844 C-45.95065643 109.74086062 -46.62351339 111.64993589 -48 114 C-49.671875 108.984375 -51.34375 103.96875 -53.015625 98.953125 C-53.37567627 97.87305176 -53.73572754 96.79297852 -54.10668945 95.68017578 C-54.89187679 93.32444611 -55.67685926 90.96864815 -56.46166992 88.61279297 C-58.21086859 83.36275055 -59.96038885 78.11285959 -61.72265625 72.8671875 C-65.38304 61.9609433 -68.97625463 51.03234961 -72.54672241 40.09637451 C-73.09523472 38.41836056 -73.64520305 36.7408218 -74.19668579 35.06378174 C-74.97647867 32.69100833 -75.75060567 30.31645465 -76.5234375 27.94140625 C-76.75853531 27.22971786 -76.99363312 26.51802948 -77.2358551 25.78477478 C-78.49803971 21.88356444 -79.66476905 18.09673034 -80 14 C-79.34 13.01 -78.68 12.02 -78 11 C-77.34 11 -76.68 11 -76 11 C-75.67 10.01 -75.34 9.02 -75 8 C-72.25147379 4.95433582 -69.82622743 2.5588334 -66 1 C-66 1.99 -66 2.98 -66 4 C-65.01 4.33 -64.02 4.66 -63 5 C-63 5.99 -63 6.98 -63 8 C-62.401875 8.061875 -61.80375 8.12375 -61.1875 8.1875 C-59 9 -59 9 -57.25 11.1875 C-55.84173016 14.35610715 -55.76070776 16.57014455 -56 20 C-55.278125 20.04125 -54.55625 20.0825 -53.8125 20.125 C-49.81091374 21.36993795 -48.37768906 23.63160717 -46 27 C-45.7525 28.0209375 -45.7525 28.0209375 -45.5 29.0625 C-44.02839421 34.76497244 -36.57656136 38.69533658 -32 42 C-28.63251488 40.48052501 -27.39159663 39.47899158 -26 36 C-25.34 36 -24.68 36 -24 36 C-24 35.34 -24 34.68 -24 34 C-23.34 34 -22.68 34 -22 34 C-21.7525 33.0925 -21.505 32.185 -21.25 31.25 C-19.92040096 27.7930425 -18.56796647 26.56796647 -16 24 C-15.43751851 22.78932555 -14.91841838 21.55782549 -14.4375 20.3125 C-13.963125 19.219375 -13.48875 18.12625 -13 17 C-12.01 16.67 -11.02 16.34 -10 16 C-8.78130071 13.49552484 -8.78130071 13.49552484 -8 11 C-7.34 11 -6.68 11 -6 11 C-5.9175 10.2575 -5.835 9.515 -5.75 8.75 C-4.85402764 5.46476803 -3.48719278 4.25401846 -1 2 C-0.67 1.34 -0.34 0.68 0 0 Z " fill="#CBCCCB" transform="translate(174,160)"/>
<path d="M0 0 C1.485 0.99 1.485 0.99 3 2 C3 2.66 3 3.32 3 4 C3.5775 4.268125 4.155 4.53625 4.75 4.8125 C7 6 7 6 9.0625 7.5625 C11.04181496 9.18688728 11.04181496 9.18688728 14 10 C14.61875 10.6496875 14.61875 10.6496875 15.25 11.3125 C20.24710507 16.13113703 24.60584139 17.456015 31.36914062 17.3515625 C32.21669922 17.31804687 33.06425781 17.28453125 33.9375 17.25 C34.81212891 17.23195312 35.68675781 17.21390625 36.58789062 17.1953125 C38.72574108 17.14858353 40.86302045 17.07685441 43 17 C43 16.34 43 15.68 43 15 C44.19496094 14.54560547 44.19496094 14.54560547 45.4140625 14.08203125 C55.224373 10.51036436 55.224373 10.51036436 62 3 C62.66 3 63.32 3 64 3 C64.33 2.34 64.66 1.68 65 1 C65.08117951 3.41734542 65.14056926 5.83194949 65.1875 8.25 C65.21263672 8.93191406 65.23777344 9.61382812 65.26367188 10.31640625 C65.31021876 13.51262602 65.18591611 15.66692213 63.61328125 18.484375 C62 20 62 20 60 20 C59.505 22.475 59.505 22.475 59 25 C58.34 25 57.68 25 57 25 C56.731875 25.78375 56.46375 26.5675 56.1875 27.375 C55 30 55 30 52 32 C51.13975225 33.81842244 51.13975225 33.81842244 50.5625 35.875 C49.32272378 39.48992645 47.86275139 41.41428907 45 44 C43.76487921 46.13309192 43.76487921 46.13309192 43 48 C42.34 48 41.68 48 41 48 C41 48.66 41 49.32 41 50 C40.34 50 39.68 50 39 50 C38.896875 50.598125 38.79375 51.19625 38.6875 51.8125 C37.91123545 54.28243264 36.92911079 55.32251235 35 57 C29.98338758 55.47981442 26.78705879 52.45264071 23 49 C21.88625 48.13375 21.88625 48.13375 20.75 47.25 C18.39091316 44.21688835 17.83438428 41.07982525 16.8515625 37.40234375 C15.67161837 34.07360228 13.62695354 32.29016463 11 30 C9.0192919 26.8874587 9 25.90120363 9 22 C7.68 21.67 6.36 21.34 5 21 C5 20.34 5 19.68 5 19 C4.360625 18.690625 3.72125 18.38125 3.0625 18.0625 C1 17 1 17 0 16 C-0.07319621 13.30345146 -0.09242537 10.63308542 -0.0625 7.9375 C-0.05798828 7.17888672 -0.05347656 6.42027344 -0.04882812 5.63867188 C-0.0370068 3.75908129 -0.01907078 1.87953101 0 0 Z " fill="#E0AC89" transform="translate(109,146)"/>
<path d="M0 0 C2.46750373 1.05818874 4.54560845 2.39555152 6.75390625 3.921875 C7.553125 4.46972656 8.35234375 5.01757812 9.17578125 5.58203125 C9.7790625 6.00355469 10.38234375 6.42507812 11.00390625 6.859375 C10.42806193 9.24501577 9.7816303 11.52620284 9.00390625 13.859375 C8.02232644 25.39647717 10.24274311 36.81591873 12.00390625 48.171875 C12.29384276 50.08775856 12.58291185 52.0037736 12.87109375 53.91992188 C13.57204842 58.56798126 14.28468847 63.21410803 15.00390625 67.859375 C14.34390625 67.859375 13.68390625 67.859375 13.00390625 67.859375 C13.00390625 69.179375 13.00390625 70.499375 13.00390625 71.859375 C3.76390625 71.859375 -5.47609375 71.859375 -14.99609375 71.859375 C-14.62396071 58.21449679 -12.81671332 45.01941932 -10.63598633 31.56689453 C-10.46473488 30.47778275 -10.46473488 30.47778275 -10.2900238 29.3666687 C-9.97569536 27.36863848 -9.65101443 25.37224483 -9.32568359 23.37597656 C-8.92560555 19.10729204 -9.0968838 15.55788268 -11.12109375 11.734375 C-11.99609375 9.859375 -11.99609375 9.859375 -11.8203125 7.94921875 C-10.70407001 5.11893566 -9.20416617 4.20938021 -6.68359375 2.546875 C-5.90371094 2.01449219 -5.12382812 1.48210937 -4.3203125 0.93359375 C-1.99609375 -0.140625 -1.99609375 -0.140625 0 0 Z " fill="#AA0202" transform="translate(141.99609375,208.140625)"/>
<path d="M0 0 C3 1 3 1 4.72265625 3.65625 C6.19781334 7.51782331 6.09070927 9.44370745 5.4375 13.5 C5.22655763 14.89042735 5.01705968 16.2810742 4.80859375 17.671875 C4.68210449 18.48076172 4.55561523 19.28964844 4.42529297 20.12304688 C3.91095489 23.60235798 3.47203532 27.08824734 3.03515625 30.578125 C2.77701229 32.61880431 2.51813692 34.65938964 2.25906372 36.69995117 C2.08687485 38.06253327 1.91635255 39.42532704 1.74752808 40.78833008 C1.50546366 42.7295784 1.25290199 44.66950881 1 46.609375 C0.855625 47.74342773 0.71125 48.87748047 0.5625 50.04589844 C0.04934357 52.74086062 -0.62351339 54.64993589 -2 57 C-3.73566526 51.79858515 -5.46612198 46.59549295 -7.19140625 41.390625 C-7.98174362 39.01040763 -8.77210873 36.63019947 -9.5625 34.25 C-9.96146484 33.04472656 -10.36042969 31.83945313 -10.77148438 30.59765625 C-11.15755859 29.43621094 -11.54363281 28.27476562 -11.94140625 27.078125 C-12.28888916 26.03043945 -12.63637207 24.98275391 -12.99438477 23.90332031 C-13.64864814 22.01439094 -14.35540335 20.14257296 -15.12084961 18.29589844 C-16.10668859 15.72138308 -16.15619844 13.73347274 -16 11 C-15.34 11 -14.68 11 -14 11 C-14 10.34 -14 9.68 -14 9 C-10.1430883 5.47805582 -5.97085506 2.65695169 -1 1 C-0.67 0.67 -0.34 0.34 0 0 Z " fill="#E5E5E4" transform="translate(128,217)"/>
<path d="M0 0 C0.33 0.99 0.66 1.98 1 3 C3.01508358 3.73323796 3.01508358 3.73323796 5 4 C5 4.66 5 5.32 5 6 C5.556875 6.103125 6.11375 6.20625 6.6875 6.3125 C10.53809608 7.45727181 14.79115855 9.56402442 17 13 C16.54165024 18.60046109 14.96473804 23.5891185 13.125 28.875 C12.86847656 29.62652344 12.61195313 30.37804687 12.34765625 31.15234375 C11.82957179 32.67014897 11.3096339 34.18732282 10.7878418 35.70385742 C8.60231743 42.07350621 6.54405841 48.44263659 4.74609375 54.93359375 C4 57 4 57 2 59 C-0.65621178 46.16223179 -2.38946575 33.63218891 -2.375 20.5 C-2.37628906 19.37424561 -2.37757813 18.24849121 -2.37890625 17.08862305 C-2.29913249 11.06434475 -1.75050672 5.76967016 0 0 Z " fill="#E5E3E2" transform="translate(154,215)"/>
<path d="M0 0 C-2.45208709 7.13334426 -6.97528478 13.06011453 -11.5234375 18.984375 C-13.01134263 21.01548358 -14.32414368 23.09520732 -15.625 25.25 C-17.4530376 28.23599067 -19.27446305 30.74438321 -22 33 C-22.66 33 -23.32 33 -24 33 C-26.49497561 37.82361952 -27.07844633 40.60776837 -26 46 C-26.86625 45.4740625 -26.86625 45.4740625 -27.75 44.9375 C-30.41386776 43.8275551 -31.33428337 44.05410055 -34 45 C-35.485 45.495 -35.485 45.495 -37 46 C-36.91298828 45.11248047 -36.91298828 45.11248047 -36.82421875 44.20703125 C-36.4804425 38.75176258 -36.4804425 38.75176258 -39.3125 34.1875 C-40.199375 33.465625 -41.08625 32.74375 -42 32 C-43.02813611 30.68824014 -44.04084432 29.3630107 -45 28 C-44.67 27.34 -44.34 26.68 -44 26 C-43.34 26.70125 -42.68 27.4025 -42 28.125 C-38.65014059 31.49416695 -34.84347436 34.22468725 -31 37 C-27.63251488 35.48052501 -26.39159663 34.47899158 -25 31 C-24.34 31 -23.68 31 -23 31 C-23 30.34 -23 29.68 -23 29 C-22.34 29 -21.68 29 -21 29 C-20.7525 28.0925 -20.505 27.185 -20.25 26.25 C-18.92040096 22.7930425 -17.56796647 21.56796647 -15 19 C-14.43751851 17.78932555 -13.91841838 16.55782549 -13.4375 15.3125 C-12.963125 14.219375 -12.48875 13.12625 -12 12 C-11.01 11.67 -10.02 11.34 -9 11 C-7.78130071 8.49552484 -7.78130071 8.49552484 -7 6 C-6.34 6 -5.68 6 -5 6 C-4.814375 4.7934375 -4.814375 4.7934375 -4.625 3.5625 C-4.41875 2.716875 -4.2125 1.87125 -4 1 C-2 0 -2 0 0 0 Z " fill="#D6C5B8" transform="translate(173,165)"/>
<path d="M0 0 C0.66 0.66 1.32 1.32 2 2 C1.8984375 4.640625 1.8984375 4.640625 1.375 8.25 C1.1739926 9.67701488 0.97352181 11.1041054 0.7734375 12.53125 C0.65323242 13.36527344 0.53302734 14.19929687 0.40917969 15.05859375 C-0.07882641 18.56664711 -0.52034905 22.07942953 -0.9609375 25.59375 C-1.21973163 27.63060519 -1.47956787 29.66732406 -1.7399292 31.70397949 C-1.91290463 33.06480619 -2.0838537 34.42589203 -2.25274658 35.78723145 C-2.49481084 37.72883409 -2.74723811 39.66913601 -3 41.609375 C-3.144375 42.74342773 -3.28875 43.87748047 -3.4375 45.04589844 C-3.95065643 47.74086062 -4.62351339 49.64993589 -6 52 C-7.95088223 46.38145918 -9.63172347 40.78886224 -11 35 C-10.01 35 -9.02 35 -8 35 C-7.87625 34.401875 -7.7525 33.80375 -7.625 33.1875 C-7 31 -7 31 -5 28 C-4.34 28 -3.68 28 -3 28 C-3 23.38 -3 18.76 -3 14 C-2.34 14 -1.68 14 -1 14 C-1.01160156 13.15695313 -1.02320313 12.31390625 -1.03515625 11.4453125 C-1.04417969 10.34960938 -1.05320313 9.25390625 -1.0625 8.125 C-1.07410156 7.03445312 -1.08570313 5.94390625 -1.09765625 4.8203125 C-1 2 -1 2 0 0 Z " fill="#E8E3E3" transform="translate(132,222)"/>
<path d="M0 0 C2.20887757 0.11498267 4.41710787 0.24243505 6.625 0.375 C7.85476562 0.44460937 9.08453125 0.51421875 10.3515625 0.5859375 C13.83653855 0.9814487 16.73049601 1.76261849 20 3 C17 5 17 5 14 5 C14 5.66 14 6.32 14 7 C14.66 7.33 15.32 7.66 16 8 C15.01 8.33 14.02 8.66 13 9 C12.34 8.67 11.68 8.34 11 8 C11 7.34 11 6.68 11 6 C6.22237362 4.98312954 6.22237362 4.98312954 1.5625 5.9375 C1.046875 6.288125 0.53125 6.63875 0 7 C0.33 7.66 0.66 8.32 1 9 C0.67 9.66 0.34 10.32 0 11 C-0.99 11 -1.98 11 -3 11 C-2.69078116 9.54096742 -2.37751201 8.08279278 -2.0625 6.625 C-1.88847656 5.81289062 -1.71445313 5.00078125 -1.53515625 4.1640625 C-1 2 -1 2 0 0 Z " fill="#2A3E4D" transform="translate(189,175)"/>
<path d="M0 0 C-0.33 1.32 -0.66 2.64 -1 4 C-2.32 4 -3.64 4 -5 4 C-4.855625 4.81984375 -4.71125 5.6396875 -4.5625 6.484375 C-4.376875 7.56203125 -4.19125 8.6396875 -4 9.75 C-3.814375 10.81734375 -3.62875 11.8846875 -3.4375 12.984375 C-3 16 -3 16 -3 20 C-2.34 20 -1.68 20 -1 20 C-0.34 21.65 0.32 23.3 1 25 C1.99 25 2.98 25 4 25 C4.66 26.98 5.32 28.96 6 31 C2.42895561 29.12050295 0.45255699 27.82946843 -1 24 C-1.66 24 -2.32 24 -3 24 C-6.43199251 16.17995992 -8.87392795 9.60333515 -8 1 C-5.07175348 0.02391783 -3.04386724 -0.08226668 0 0 Z " fill="#E6CEB7" transform="translate(81,82)"/>
<path d="M0 0 C3.03584156 1.12438576 4.15634316 2.20101263 6.1875 4.8125 C9.31666071 8.81743211 13.51144537 10.78994914 18 13 C17.979375 13.78375 17.95875 14.5675 17.9375 15.375 C17.81315937 17.98114961 17.81315937 17.98114961 19 20 C18.13375 19.4740625 18.13375 19.4740625 17.25 18.9375 C14.58613224 17.8275551 13.66571663 18.05410055 11 19 C10.01 19.33 9.02 19.66 8 20 C8.05800781 19.40832031 8.11601562 18.81664062 8.17578125 18.20703125 C8.5195575 12.75176258 8.5195575 12.75176258 5.6875 8.1875 C4.800625 7.465625 3.91375 6.74375 3 6 C0 2.37931034 0 2.37931034 0 0 Z " fill="#DCBEB3" transform="translate(128,191)"/>
<path d="M0 0 C0.66 0.66 1.32 1.32 2 2 C1.86328125 4.921875 1.86328125 4.921875 1.3125 8.75 C1.21727051 9.43578125 1.12204102 10.1215625 1.02392578 10.828125 C0.81061874 12.35935279 0.59254987 13.88992216 0.37060547 15.41992188 C-0.18287538 19.27314032 -0.69778824 23.13143311 -1.21801758 26.98925781 C-1.80440935 31.32722025 -2.4015975 35.66368045 -3 40 C-3.33 40 -3.66 40 -4 40 C-4.17258766 28.49415576 -4.17258766 28.49415576 -3.5 23.625 C-3.04913461 20.35622589 -2.91768492 17.29260329 -3 14 C-2.34 14 -1.68 14 -1 14 C-1.01160156 13.15695313 -1.02320313 12.31390625 -1.03515625 11.4453125 C-1.04417969 10.34960938 -1.05320313 9.25390625 -1.0625 8.125 C-1.07410156 7.03445312 -1.08570313 5.94390625 -1.09765625 4.8203125 C-1 2 -1 2 0 0 Z " fill="#F6D3CD" transform="translate(132,222)"/>
<path d="M0 0 C0.66 0.33 1.32 0.66 2 1 C3.15271442 6.07321016 2.85511161 9.92112744 1.625 14.9375 C0.44756072 19.97521966 -0.48557275 24.85572745 -1 30 C-1.66 30 -2.32 30 -3 30 C-2.57227835 19.86975045 -2.01291888 9.96687989 0 0 Z " fill="#951819" transform="translate(130,250)"/>
<path d="M0 0 C0.66 0 1.32 0 2 0 C2.144375 0.763125 2.28875 1.52625 2.4375 2.3125 C2.9632594 5.08172908 2.9632594 5.08172908 4 8 C4.08614619 12.16963291 3.85740827 16.33375608 3.6875 20.5 C3.65205078 21.65371094 3.61660156 22.80742187 3.58007812 23.99609375 C3.51530273 25.65318359 3.51530273 25.65318359 3.44921875 27.34375 C3.41143311 28.35630859 3.37364746 29.36886719 3.3347168 30.41210938 C3 33 3 33 1 36 C-0.25060935 28.96954744 0.21599967 22.67345707 1.50146484 15.7109375 C2.29379852 10.79919671 1.45025762 8.25210101 -1 4 C-0.6875 1.625 -0.6875 1.625 0 0 Z " fill="#8F1D1F" transform="translate(131,214)"/>
<path d="M0 0 C11.22 0 22.44 0 34 0 C33.67 1.65 33.34 3.3 33 5 C32.30777344 4.855625 31.61554688 4.71125 30.90234375 4.5625 C20.66799903 2.57899308 10.39430913 1.60027925 0 1 C0 0.67 0 0.34 0 0 Z " fill="#E5E4E5" transform="translate(134,0)"/>
<path d="M0 0 C0.33 0 0.66 0 1 0 C1.08040527 0.59312988 1.16081055 1.18625977 1.24365234 1.79736328 C2.79115352 13.20383772 4.3476005 24.60816344 6 36 C5.34 36 4.68 36 4 36 C3.34 31.71 2.68 27.42 2 23 C1.34 23 0.68 23 0 23 C0 15.41 0 7.82 0 0 Z " fill="#9F2F31" transform="translate(151,240)"/>
<path d="M0 0 C0.66 0.33 1.32 0.66 2 1 C0.7874262 4.72433382 -0.50859979 8.37802806 -2 12 C-2.66 12 -3.32 12 -4 12 C-4.226875 12.515625 -4.45375 13.03125 -4.6875 13.5625 C-6.48981755 16.90966116 -8.61282504 20.03890492 -11 23 C-11.33 23 -11.66 23 -12 23 C-12 21.35 -12 19.7 -12 18 C-11.01 18 -10.02 18 -9 18 C-8.9175 17.2575 -8.835 16.515 -8.75 15.75 C-8 13 -8 13 -6.0625 11.125 C-3.37048269 8.35140641 -2.95740516 5.69284846 -2 2 C-1.34 1.34 -0.68 0.68 0 0 Z " fill="#E6CEB9" transform="translate(188,121)"/>
<path d="M0 0 C0.66 0 1.32 0 2 0 C2.33 0.66 2.66 1.32 3 2 C3.99 2.33 4.98 2.66 6 3 C6.72248412 4.97041123 7.43966852 6.94331393 8.10546875 8.93359375 C9.40609388 11.93809459 11.6495329 13.77658518 14 16 C14 16.99 14 17.98 14 19 C13.01 18.67 12.02 18.34 11 18 C11 17.34 11 16.68 11 16 C9.35 15.67 7.7 15.34 6 15 C5.71125 13.9275 5.4225 12.855 5.125 11.75 C4.27055437 8.90184789 3.54601451 6.51227358 2 4 C1.34 3.67 0.68 3.34 0 3 C0 2.01 0 1.02 0 0 Z " fill="#D7B8A4" transform="translate(112,165)"/>
<path d="M0 0 C0.33 0 0.66 0 1 0 C1 5.61 1 11.22 1 17 C-6.06153846 7.58461538 -6.06153846 7.58461538 -5.75 4.625 C-5.5025 4.08875 -5.255 3.5525 -5 3 C-4.67 3.66 -4.34 4.32 -4 5 C-3.01 5 -2.02 5 -1 5 C-0.67 3.35 -0.34 1.7 0 0 Z " fill="#21170F" transform="translate(88,78)"/>
<path d="M0 0 C1.11736481 3.61360535 0.62738161 5.92001709 -0.38671875 9.5625 C-1.58098572 14.30914069 -2.242929 19.1676319 -3 24 C-3.33 24 -3.66 24 -4 24 C-4.11638036 20.75030231 -4.18730581 17.5011417 -4.25 14.25 C-4.28351562 13.32960938 -4.31703125 12.40921875 -4.3515625 11.4609375 C-4.45112665 4.59101089 -4.45112665 4.59101089 -1.984375 1.359375 C-1.32953125 0.91078125 -0.6746875 0.4621875 0 0 Z " fill="#EBEFF2" transform="translate(4,256)"/>
<path d="M0 0 C0.99 0 1.98 0 3 0 C4.14947895 3.55293493 4.0868937 4.79976669 2.5625 8.3125 C1.7890625 9.6428125 1.7890625 9.6428125 1 11 C1.66 11 2.32 11 3 11 C3 11.66 3 12.32 3 13 C1.35 13 -0.3 13 -2 13 C-3.18771723 9.57056481 -2.80226223 7.62215325 -1.5625 4.25 C-1.27503906 3.45078125 -0.98757812 2.6515625 -0.69140625 1.828125 C-0.46324219 1.22484375 -0.23507813 0.6215625 0 0 Z " fill="#2B414F" transform="translate(172,226)"/>
<path d="M0 0 C0.625 1.8125 0.625 1.8125 1 4 C0.01 5.485 0.01 5.485 -1 7 C-1 5.02 -1 3.04 -1 1 C-1.99 2.485 -1.99 2.485 -3 4 C-3.99 4 -4.98 4 -6 4 C-6.33 4.99 -6.66 5.98 -7 7 C-8.65 6.67 -10.3 6.34 -12 6 C-12.33 4.68 -12.66 3.36 -13 2 C-8.46298506 0.54815522 -4.81938524 -0.23509196 0 0 Z " fill="#2D434D" transform="translate(83,177)"/>
<path d="M0 0 C1.875 0.25 1.875 0.25 4 1 C5.79573757 3.85534897 6.2618409 6.13594207 6.34375 9.4765625 C6.37339844 10.311875 6.40304688 11.1471875 6.43359375 12.0078125 C6.47806268 13.76041165 6.52233176 15.51301588 6.56640625 17.265625 C6.59605469 18.09835938 6.62570313 18.93109375 6.65625 19.7890625 C6.67494141 20.54912598 6.69363281 21.30918945 6.71289062 22.09228516 C6.84279764 24.23879663 6.84279764 24.23879663 9 26 C8.625 28.125 8.625 28.125 8 30 C8 29.01 8 28.02 8 27 C6.68 26.67 5.36 26.34 4 26 C4.33 19.4 4.66 12.8 5 6 C4.34 6 3.68 6 3 6 C2.01 4.02 1.02 2.04 0 0 Z " fill="#DDC7B8" transform="translate(103,138)"/>
<path d="M0 0 C0.66 0 1.32 0 2 0 C2.125 6.75 2.125 6.75 1 9 C0.76725791 11.87910588 0.58027243 14.74146495 0.4375 17.625 C0.39431641 18.42679688 0.35113281 19.22859375 0.30664062 20.0546875 C0.20048543 22.0362511 0.09973145 24.01810271 0 26 C-0.33 26 -0.66 26 -1 26 C-1.91093654 22.1011916 -2.16432051 18.43828023 -2.1875 14.4375 C-2.20167969 13.32246094 -2.21585938 12.20742187 -2.23046875 11.05859375 C-2.00319789 8.04243977 -1.39250203 6.60337336 0 4 C0 2.68 0 1.36 0 0 Z " fill="#F6CEC8" transform="translate(152,214)"/>
<path d="M0 0 C2.80824575 1.15633649 4.83571168 2.90366839 7.125 4.875 C6.135 5.205 5.145 5.535 4.125 5.875 C4.125 5.215 4.125 4.555 4.125 3.875 C2.805 3.545 1.485 3.215 0.125 2.875 C0.125 4.195 0.125 5.515 0.125 6.875 C-2.845 6.545 -5.815 6.215 -8.875 5.875 C-3.00234864 -0.20015658 -3.00234864 -0.20015658 0 0 Z " fill="#971B1D" transform="translate(141.875,208.125)"/>
<path d="M0 0 C0.66 0.33 1.32 0.66 2 1 C0.24416626 4.09361183 -1.50018479 6.50018479 -4 9 C-5.17574711 11.09989652 -5.17574711 11.09989652 -6 13 C-6.66 13 -7.32 13 -8 13 C-8 13.66 -8 14.32 -8 15 C-8.66 15 -9.32 15 -10 15 C-10.12375 15.639375 -10.2475 16.27875 -10.375 16.9375 C-10.58125 17.618125 -10.7875 18.29875 -11 19 C-11.66 19.33 -12.32 19.66 -13 20 C-12.03939896 16.33225059 -10.92668033 13.69511182 -8.4375 10.875 C-5.90859432 8.3339838 -5.90859432 8.3339838 -5.5 5.875 C-4.7022331 2.88337414 -2.42941898 1.74419824 0 0 Z " fill="#D6B39C" transform="translate(158,181)"/>
<path d="M0 0 C4.455 1.98 4.455 1.98 9 4 C8.01 4.33 7.02 4.66 6 5 C5.67 5.66 5.34 6.32 5 7 C2.4375 7.625 2.4375 7.625 0 8 C-1.08174162 4.63458162 -0.92538169 3.70152678 0 0 Z " fill="#DEC4AC" transform="translate(95,56)"/>
<path d="M0 0 C5.75 1.75 5.75 1.75 8 4 C8.39764263 5.98821313 8.73775349 7.98944339 9 10 C8.401875 9.690625 7.80375 9.38125 7.1875 9.0625 C4.91043228 7.89790296 4.91043228 7.89790296 2 7 C0.8125 3.4375 0.8125 3.4375 0 0 Z " fill="#D7B3A3" transform="translate(138,201)"/>
<path d="M0 0 C2.17917221 3.26875831 2.84079772 5.09954411 3 9 C1.0625 11.375 1.0625 11.375 -1 13 C-1.66 12.67 -2.32 12.34 -3 12 C-2.69106068 10.3743193 -2.3777305 8.74947252 -2.0625 7.125 C-1.88847656 6.22007812 -1.71445313 5.31515625 -1.53515625 4.3828125 C-1 2 -1 2 0 0 Z " fill="#253C4C" transform="translate(100,195)"/>
<path d="M0 0 C-1 2 -1 2 -3.9375 3.0625 C-4.948125 3.371875 -5.95875 3.68125 -7 4 C-9.16666667 4.83333333 -9.16666667 4.83333333 -10 7 C-11.32 6.67 -12.64 6.34 -14 6 C-13 3 -13 3 -9.8125 1.3125 C-6.4652075 -0.01535157 -3.61508773 -0.26451861 0 0 Z " fill="#293C47" transform="translate(56,184)"/>
<path d="M0 0 C0.33 0 0.66 0 1 0 C1.33 2.31 1.66 4.62 2 7 C2.99 5.68 3.98 4.36 5 3 C5.66 4.65 6.32 6.3 7 8 C5.25 10.0625 5.25 10.0625 3 12 C1.68 11.67 0.36 11.34 -1 11 C-0.67 7.37 -0.34 3.74 0 0 Z " fill="#C8AE95" transform="translate(195,85)"/>
<path d="M0 0 C1.32 0.66 2.64 1.32 4 2 C3.67 3.32 3.34 4.64 3 6 C2.34 6 1.68 6 1 6 C0.87625 6.78375 0.7525 7.5675 0.625 8.375 C0 11 0 11 -2 13 C-3.46845421 7.52667068 -2.44038726 4.88077452 0 0 Z " fill="#324652" transform="translate(162,258)"/>
<path d="M0 0 C0.33 0 0.66 0 1 0 C1.10826289 2.4178712 1.18739789 4.83087556 1.25 7.25 C1.28351563 7.93191406 1.31703125 8.61382812 1.3515625 9.31640625 C1.4215705 12.92181813 1.29151719 14.64068812 -1.015625 17.484375 C-1.99789062 18.23460937 -1.99789062 18.23460937 -3 19 C-2.835 18.236875 -2.67 17.47375 -2.5 16.6875 C-1.83437851 11.77854151 -1.92079922 6.94564886 -2 2 C-1.34 2 -0.68 2 0 2 C0 1.34 0 0.68 0 0 Z " fill="#D8B09A" transform="translate(173,147)"/>
<path d="M0 0 C0.33 1.98 0.66 3.96 1 6 C0.67 5.01 0.34 4.02 0 3 C-0.66 3 -1.32 3 -2 3 C-2 3.99 -2 4.98 -2 6 C-2.99 6.33 -3.98 6.66 -5 7 C-5 5.68 -5 4.36 -5 3 C-6.98 3 -8.96 3 -11 3 C-7.25667087 0.99464511 -4.26323685 0 0 0 Z " fill="#3A4B55" transform="translate(94,174)"/>
<path d="M0 0 C0.66 0 1.32 0 2 0 C1.67 3.96 1.34 7.92 1 12 C0.01 12 -0.98 12 -2 12 C-2.33 12.99 -2.66 13.98 -3 15 C-2.35812082 9.86496656 -1.31727753 5.0056546 0 0 Z " fill="#C3AE9C" transform="translate(92,68)"/>
<path d="M0 0 C2 3 2 3 1.86328125 5.2265625 C1.68152344 6.01804688 1.49976563 6.80953125 1.3125 7.625 C1.14363281 8.42164063 0.97476563 9.21828125 0.80078125 10.0390625 C0.40439453 11.00972656 0.40439453 11.00972656 0 12 C-0.99 12.33 -1.98 12.66 -3 13 C-2.45144652 8.428721 -1.58255197 4.32564205 0 0 Z " fill="#3A4C56" transform="translate(166,244)"/>
<path d="M0 0 C0.99 0 1.98 0 3 0 C2.63076923 7.38461538 2.63076923 7.38461538 -0.5625 10.5 C-1.7690625 11.2425 -1.7690625 11.2425 -3 12 C-2.40075776 7.80530429 -1.42500059 3.99000166 0 0 Z " fill="#334650" transform="translate(180,202)"/>
<path d="M0 0 C4.05606165 0.46800711 7.46588679 0.87953208 11 3 C9.02 3.33 7.04 3.66 5 4 C5 4.66 5 5.32 5 6 C5.66 6.33 6.32 6.66 7 7 C6.01 7.33 5.02 7.66 4 8 C3.34 7.67 2.68 7.34 2 7 C2.66 5.02 3.32 3.04 4 1 C2.68 0.67 1.36 0.34 0 0 Z " fill="#465864" transform="translate(198,176)"/>
<path d="M0 0 C1.4070473 2.6264883 2.62816493 5.02531947 3 8 C2.37341343 9.35263132 1.710001 10.68922893 1 12 C0.30289269 10.71349294 -0.38242876 9.42059335 -1.0625 8.125 C-1.63677734 7.04605469 -1.63677734 7.04605469 -2.22265625 5.9453125 C-2.47917969 5.30335938 -2.73570313 4.66140625 -3 4 C-2.67 3.34 -2.34 2.68 -2 2 C-1.34 2.33 -0.68 2.66 0 3 C0 2.01 0 1.02 0 0 Z " fill="#2E4250" transform="translate(116,244)"/>
<path d="M0 0 C0.33 0 0.66 0 1 0 C1.98419339 4.05979772 2.23183367 7.82699392 2 12 C1.34 12.99 0.68 13.98 0 15 C-1.33257403 4.44191344 -1.33257403 4.44191344 0 0 Z " fill="#9F2324" transform="translate(132,235)"/>
<path d="M0 0 C0.66 0.66 1.32 1.32 2 2 C1.8984375 4.05859375 1.8984375 4.05859375 1.375 6.4375 C1.21773437 7.21996094 1.06046875 8.00242188 0.8984375 8.80859375 C-0.20697929 11.50484948 -1.5735806 12.45996646 -4 14 C-3.52188823 12.22888156 -3.0424722 10.45811517 -2.5625 8.6875 C-2.29566406 7.70136719 -2.02882812 6.71523437 -1.75390625 5.69921875 C-1.21920575 3.78482474 -0.62855462 1.88566385 0 0 Z " fill="#3C4C59" transform="translate(185,186)"/>
<path d="M0 0 C0.33 0 0.66 0 1 0 C1 2.31 1 4.62 1 7 C1.66 7 2.32 7 3 7 C2.67 7.99 2.34 8.98 2 10 C1.01 10.33 0.02 10.66 -1 11 C-1.66 11.99 -2.32 12.98 -3 14 C-3.6875 12.1875 -3.6875 12.1875 -4 10 C-3.54625 9.566875 -3.0925 9.13375 -2.625 8.6875 C-0.16492026 6.13280181 -0.32350286 3.42913029 0 0 Z " fill="#C9B09F" transform="translate(204,76)"/>
<path d="M0 0 C1.125 1.625 1.125 1.625 2 4 C1.125 7.25 1.125 7.25 0 10 C-0.99 10 -1.98 10 -3 10 C-3 8.68 -3 7.36 -3 6 C-2.34 6 -1.68 6 -1 6 C-0.67 4.02 -0.34 2.04 0 0 Z " fill="#3A3940" transform="translate(158,270)"/>
<path d="M0 0 C2 4 2 4 2 6 C2.66 6 3.32 6 4 6 C4.33 6.99 4.66 7.98 5 9 C3.02 9.33 1.04 9.66 -1 10 C-0.67 6.7 -0.34 3.4 0 0 Z " fill="#374952" transform="translate(3,262)"/>
<path d="M0 0 C0.99 0.99 1.98 1.98 3 3 C2.34 3 1.68 3 1 3 C1 6.63 1 10.26 1 14 C1.66 14 2.32 14 3 14 C2.67 15.32 2.34 16.64 2 18 C0 16 0 16 -0.1953125 12.3046875 C-0.182009 10.82799892 -0.15814835 9.35137642 -0.125 7.875 C-0.11146484 6.74384766 -0.11146484 6.74384766 -0.09765625 5.58984375 C-0.0740687 3.72642746 -0.03819719 1.86317407 0 0 Z " fill="#D4B198" transform="translate(109,146)"/>
<path d="M0 0 C2.125 0.375 2.125 0.375 4 1 C4 1.99 4 2.98 4 4 C4.66 4 5.32 4 6 4 C6.33 3.34 6.66 2.68 7 2 C6.67 3.32 6.34 4.64 6 6 C0.25 4.25 0.25 4.25 -2 2 C-1.34 1.34 -0.68 0.68 0 0 Z " fill="#1B0F0A" transform="translate(104,57)"/>
<path d="M0 0 C0.66 0 1.32 0 2 0 C1.67 4.29 1.34 8.58 1 13 C-1 11 -1 11 -1.23046875 8.65234375 C-1.21628906 7.75644531 -1.20210937 6.86054688 -1.1875 5.9375 C-1.18105469 5.03902344 -1.17460937 4.14054688 -1.16796875 3.21484375 C-1 1 -1 1 0 0 Z " fill="#9A0A0B" transform="translate(148,222)"/>
<path d="M0 0 C3.3 0 6.6 0 10 0 C10 0.66 10 1.32 10 2 C10.66 2 11.32 2 12 2 C12 2.66 12 3.32 12 4 C10.56138706 3.91253716 9.12402492 3.80434652 7.6875 3.6875 C6.88699219 3.62949219 6.08648437 3.57148437 5.26171875 3.51171875 C3 3 3 3 0 0 Z " fill="#C6AE98" transform="translate(120,66)"/>
<path d="M0 0 C2.31 0 4.62 0 7 0 C6.01 1.98 5.02 3.96 4 6 C2.68 5.34 1.36 4.68 0 4 C0 2.68 0 1.36 0 0 Z " fill="#D9C3BC" transform="translate(147,208)"/>
<path d="M0 0 C0.66 0.33 1.32 0.66 2 1 C0.6875 3.9375 0.6875 3.9375 -1 7 C-1.99 7.33 -2.98 7.66 -4 8 C-4.66 7.34 -5.32 6.68 -6 6 C-4.02 4.02 -2.04 2.04 0 0 Z " fill="#394B54" transform="translate(32,194)"/>
<path d="M0 0 C0.99 0.66 1.98 1.32 3 2 C-0.51187196 4.40814077 -2.72656908 5.36629408 -7 5 C-7 4.34 -7 3.68 -7 3 C-3.25 1 -3.25 1 -1 1 C-0.67 0.67 -0.34 0.34 0 0 Z " fill="#22170F" transform="translate(134,61)"/>
<path d="M0 0 C0.598125 0.33 1.19625 0.66 1.8125 1 C4.05386471 2.20787988 4.05386471 2.20787988 7 2 C7 2.66 7 3.32 7 4 C6.34 4 5.68 4 5 4 C5 4.66 5 5.32 5 6 C4.01 6.33 3.02 6.66 2 7 C1.34 4.69 0.68 2.38 0 0 Z " fill="#BBBFC3" transform="translate(109,222)"/>
<path d="M0 0 C2.475 0.99 2.475 0.99 5 2 C5 2.99 5 3.98 5 5 C2.03 4.67 -0.94 4.34 -4 4 C-2.68 2.68 -1.36 1.36 0 0 Z " fill="#9D1012" transform="translate(137,210)"/>
<path d="M0 0 C1.9375 0.3125 1.9375 0.3125 4 1 C5.2077558 4.62326739 4.54311128 5.64146369 3 9 C0.87491756 5.81237635 0.4979837 3.73487777 0 0 Z " fill="#BEC5C9" transform="translate(106,211)"/>
<path d="M0 0 C0.33 0 0.66 0 1 0 C0.67 3.3 0.34 6.6 0 10 C-0.66 10 -1.32 10 -2 10 C-3.34920635 4.6031746 -3.34920635 4.6031746 -1.625 1.625 C-1.08875 1.08875 -0.5525 0.5525 0 0 Z " fill="#5F484D" transform="translate(127,270)"/>
<path d="M0 0 C1.32 0 2.64 0 4 0 C3.67 2.64 3.34 5.28 3 8 C0.37613513 4.93882432 0 4.26826873 0 0 Z " fill="#E0CBCC" transform="translate(124,266)"/>
<path d="M0 0 C0.99 0 1.98 0 3 0 C3.33 1.65 3.66 3.3 4 5 C3.01 5.33 2.02 5.66 1 6 C0.01 5.01 -0.98 4.02 -2 3 C-1.34 3 -0.68 3 0 3 C0 2.01 0 1.02 0 0 Z " fill="#273B47" transform="translate(107,224)"/>
<path d="M0 0 C2.14553974 2.14553974 2.72963853 3.02602384 3 6 C1.5625 7.75 1.5625 7.75 0 9 C-0.66 6.69 -1.32 4.38 -2 2 C-1.34 1.34 -0.68 0.68 0 0 Z " fill="#B5BDC2" transform="translate(98,180)"/>
<path d="M0 0 C0.99 1.32 1.98 2.64 3 4 C-0.47823115 5.15941038 -2.45895578 4.70820884 -6 4 C-3.94766315 1.7522025 -2.99332739 0.9977758 0 0 Z " fill="#252525" transform="translate(108,8)"/>
<path d="M0 0 C0.66 0 1.32 0 2 0 C2.25 6.625 2.25 6.625 0 10 C-0.66 10 -1.32 10 -2 10 C-1.855625 9.36191406 -1.71125 8.72382813 -1.5625 8.06640625 C-1.376875 7.24011719 -1.19125 6.41382813 -1 5.5625 C-0.7215625 4.32693359 -0.7215625 4.32693359 -0.4375 3.06640625 C0.03452147 1.18898311 0.03452147 1.18898311 0 0 Z " fill="#EDC9C2" transform="translate(152,214)"/>
<path d="M0 0 C1.98 0.99 1.98 0.99 4 2 C3.38722388 4.96175123 2.74627478 6.38058783 1 9 C0.67 6.03 0.34 3.06 0 0 Z " fill="#962526" transform="translate(149,213)"/>
<path d="M0 0 C2.31 0 4.62 0 7 0 C6.01 0.33 5.02 0.66 4 1 C2.79117904 3.00016466 2.79117904 3.00016466 2 5 C1.01 4.67 0.02 4.34 -1 4 C-0.67 2.68 -0.34 1.36 0 0 Z " fill="#354550" transform="translate(189,175)"/>
<path d="M0 0 C2.97 1.98 2.97 1.98 6 4 C3.10765685 4.82638376 1.11257569 5 -2 5 C-1.34 3.35 -0.68 1.7 0 0 Z " fill="#DACEC9" transform="translate(174,160)"/>
<path d="M0 0 C0 0.66 0 1.32 0 2 C-1.66666667 2.33333333 -3.33333333 2.66666667 -5 3 C-5.886875 3.226875 -6.77375 3.45375 -7.6875 3.6875 C-8.8321875 3.8421875 -8.8321875 3.8421875 -10 4 C-10.66 3.34 -11.32 2.68 -12 2 C-10.37548581 1.66430703 -8.75037083 1.3315204 -7.125 1 C-6.22007813 0.814375 -5.31515625 0.62875 -4.3828125 0.4375 C-2 0 -2 0 0 0 Z " fill="#262425" transform="translate(130,2)"/>
<path d="M0 0 C2.39489543 0.74324341 3.70777616 1.47057354 4.93359375 3.69140625 C5.67219923 5.44073501 6.34049685 7.21934149 7 9 C2.97449681 7.6581656 2.11714364 5.5772427 0 2 C0 1.34 0 0.68 0 0 Z " fill="#D8C9BD" transform="translate(128,191)"/>
<path d="M0 0 C1.875 0.125 1.875 0.125 4 1 C5.25 4.0625 5.25 4.0625 6 7 C3 6 3 6 1.3125 2.9375 C0.879375 1.968125 0.44625 0.99875 0 0 Z " fill="#E8CFBB" transform="translate(103,138)"/>
<path d="M0 0 C1.98 0.99 1.98 0.99 4 2 C3.01 4.64 2.02 7.28 1 10 C0.67 10 0.34 10 0 10 C0 6.7 0 3.4 0 0 Z " fill="#241108" transform="translate(196,85)"/>
<path d="M0 0 C2.12508244 3.18762365 2.5020163 5.26512223 3 9 C2.01 9.495 2.01 9.495 1 10 C-0.60725635 6.78548731 -0.05748185 3.56387464 0 0 Z " fill="#404E58" transform="translate(119,253)"/>
<path d="M0 0 C4.875 4.625 4.875 4.625 6 8 C4.68 7.67 3.36 7.34 2 7 C1.34 4.69 0.68 2.38 0 0 Z " fill="#D5DDE1" transform="translate(117,246)"/>
<path d="M0 0 C0.66 0.66 1.32 1.32 2 2 C1.9765625 4.6015625 1.9765625 4.6015625 1.625 7.625 C1.51414063 8.62789062 1.40328125 9.63078125 1.2890625 10.6640625 C1.19367188 11.43492187 1.09828125 12.20578125 1 13 C0.67 13 0.34 13 0 13 C-0.19466332 11.20909747 -0.38051213 9.41723495 -0.5625 7.625 C-0.66691406 6.62726563 -0.77132812 5.62953125 -0.87890625 4.6015625 C-1 2 -1 2 0 0 Z " fill="#EDB2AC" transform="translate(132,222)"/>
<path d="M0 0 C0.99 0.33 1.98 0.66 3 1 C3.33 2.98 3.66 4.96 4 7 C4.66 7 5.32 7 6 7 C5.67 7.66 5.34 8.32 5 9 C1.13892543 6.42595029 1.05680308 4.38979741 0 0 Z " fill="#D6B59F" transform="translate(126,184)"/>
<path d="M0 0 C-0.33 1.65 -0.66 3.3 -1 5 C-1.99 4.67 -2.98 4.34 -4 4 C-3.67 3.67 -3.34 3.34 -3 3 C-3.99 2.01 -4.98 1.02 -6 0 C-3 -1 -3 -1 0 0 Z " fill="#F1CFB0" transform="translate(174,57)"/>
<path d="M0 0 C2.475 0.99 2.475 0.99 5 2 C3.68 3.65 2.36 5.3 1 7 C0.67 4.69 0.34 2.38 0 0 Z " fill="#EBE9EA" transform="translate(84,18)"/>
<path d="M0 0 C1.9375 0.3125 1.9375 0.3125 4 1 C4.33 1.99 4.66 2.98 5 4 C3.68 4.33 2.36 4.66 1 5 C0.67 3.35 0.34 1.7 0 0 Z " fill="#D6DBDF" transform="translate(112,229)"/>
<path d="M0 0 C1.485 0.99 1.485 0.99 3 2 C2.67 3.98 2.34 5.96 2 8 C0.4375 6.25 0.4375 6.25 -1 4 C-0.6875 1.75 -0.6875 1.75 0 0 Z " fill="#BBC3CA" transform="translate(172,216)"/>
<path d="M0 0 C0.99 0.33 1.98 0.66 3 1 C0.87219421 3.34058637 -1.11562221 4.70700306 -4 6 C-2.25 1.125 -2.25 1.125 0 0 Z " fill="#DCB8B0" transform="translate(133,210)"/>
<path d="M0 0 C2.2477975 2.05233685 3.0022242 3.00667261 4 6 C3.01 6 2.02 6 1 6 C0.67 6.66 0.34 7.32 0 8 C-1.125 2.25 -1.125 2.25 0 0 Z " fill="#2F4049" transform="translate(262,208)"/>
<path d="M0 0 C2 3 2 3 1.625 5.1875 C1.41875 5.785625 1.2125 6.38375 1 7 C0.01 7 -0.98 7 -2 7 C-1.34 4.69 -0.68 2.38 0 0 Z " fill="#32424D" transform="translate(100,195)"/>
<path d="M0 0 C-2.97 2.475 -2.97 2.475 -6 5 C-6 3.35 -6 1.7 -6 0 C-2.25 -1.125 -2.25 -1.125 0 0 Z " fill="#FDF4E7" transform="translate(199,114)"/>
<path d="M0 0 C0.66 0 1.32 0 2 0 C2.1875 2.875 2.1875 2.875 2 6 C1.01 6.66 0.02 7.32 -1 8 C-0.67 5.36 -0.34 2.72 0 0 Z " fill="#D1BBA6" transform="translate(92,68)"/>
</svg>
